<?xml version="1.0" encoding="utf-8"?>
<!-- Generator: Adobe Illustrator 26.0.1, SVG Export Plug-In . SVG Version: 6.00 Build 0)  -->
<svg version="1.1" xmlns="http://www.w3.org/2000/svg" xmlns:xlink="http://www.w3.org/1999/xlink" x="0px" y="0px"
	 viewBox="0 0 247.9 284.6" style="enable-background:new 0 0 247.9 284.6;" xml:space="preserve">
<style type="text/css">
	.st0{fill:#923E3A;}
	.st1{fill:none;stroke:#923E3A;stroke-width:1.5;stroke-miterlimit:10;}
</style>
<g id="Layer_1">
</g>
<g id="Layer_2">
	<circle class="st0" cx="205.9" cy="10.1" r="1.6"/>
	<circle class="st0" cx="204.1" cy="16.6" r="1.6"/>
	<circle class="st0" cx="201.3" cy="25.5" r="1.6"/>
	<circle class="st0" cx="193.5" cy="31.1" r="1.6"/>
	<circle class="st0" cx="180.8" cy="34.2" r="1.6"/>
	<circle class="st0" cx="171.7" cy="41.5" r="1.6"/>
	<circle class="st0" cx="175.5" cy="37.4" r="1.6"/>
	<circle class="st0" cx="167.1" cy="47.1" r="1.6"/>
	<circle class="st0" cx="164.1" cy="50.9" r="1.6"/>
	<circle class="st0" cx="154.8" cy="57.4" r="1.6"/>
	<circle class="st0" cx="152.3" cy="64.1" r="1.6"/>
	<circle class="st0" cx="149.9" cy="66.7" r="1.6"/>
	<circle class="st0" cx="146.3" cy="70.2" r="1.6"/>
	<circle class="st0" cx="132.6" cy="76.9" r="1.6"/>
	<circle class="st0" cx="127.9" cy="81.5" r="1.6"/>
	<circle class="st0" cx="123.7" cy="87.3" r="1.6"/>
	<circle class="st0" cx="117.1" cy="91.7" r="1.6"/>
	<circle class="st0" cx="109.6" cy="94.9" r="1.6"/>
	<path class="st1" d="M205.9,10c-1.4,2.5-1.3,5-1.8,6.6c-0.6,2-0.7,3.5-1,4.6c-0.8,2.7-1.2,3.3-1.9,4.4c-2.2,3.4-5.6,4.8-7.7,5.6
		c-5.1,2.1-6.4,1.1-12.7,3c-3,0.9-4.5,2.5-5.4,3.2c-1.1,0.9-2,2-3.8,4.1c-2,2.3-2.5,3.2-4.5,5.6c-1.6,2-2.2,2.6-2.9,3.3
		c-0.3,0.3-1.5,1.4-3.3,2.9c-2.5,2.1-4.8,2.3-6.1,4c-2.4,1.2-0.9,3.7-2.5,6.8c-0.4,0.5-1,1.2-2.4,2.6c-0.6,0.6-2,2-3.6,3.5
		c-2.8,2.5-4.1,3.7-5.7,4.5c-3.4,1.5-4.8,0.3-8,2.1c-1.7,1-2.7,2.2-4.7,4.7c-2.6,3.2-2.3,3.8-4.2,5.8c-1.9,2-2.5,3-6.6,4.4
		c-3.5,1.4-3.2,1.1-7.6,3.2"/>
</g>
</svg>
