<?xml version="1.0" encoding="utf-8"?>
<!-- Generator: Adobe Illustrator 26.0.1, SVG Export Plug-In . SVG Version: 6.00 Build 0)  -->
<svg version="1.1" id="Layer_1" xmlns="http://www.w3.org/2000/svg" xmlns:xlink="http://www.w3.org/1999/xlink" x="0px" y="0px"
	 viewBox="0 0 911.35 272.3" style="enable-background:new 0 0 911.35 272.3;" xml:space="preserve">
<style type="text/css">
	.st0{fill:url(#SVGID_1_);}
	.st1{fill:url(#SVGID_00000143587244591185077950000008056752952151832738_);}
	.st2{fill:url(#SVGID_00000054963397525119869280000013065281870346381470_);}
	.st3{fill:none;stroke:#000000;stroke-width:2;stroke-miterlimit:10;}
	.st4{fill:url(#SVGID_00000168089846147073203730000011632457413849664439_);stroke:#FFFFFF;stroke-width:4;stroke-miterlimit:10;}
	.st5{fill:url(#SVGID_00000123423663137762726330000005638995508380709295_);stroke:#FFFFFF;stroke-width:4;stroke-miterlimit:10;}
	.st6{fill:url(#SVGID_00000088817784314470088120000009908616426146146457_);stroke:#FFFFFF;stroke-width:4;stroke-miterlimit:10;}
	.st7{fill:url(#SVGID_00000123434484243907967700000010404597385525856922_);stroke:#FFFFFF;stroke-width:4;stroke-miterlimit:10;}
	.st8{fill:url(#SVGID_00000015335506080812900540000017049126402326142634_);stroke:#FFFFFF;stroke-width:4;stroke-miterlimit:10;}
	.st9{fill:url(#SVGID_00000100356180185905245910000003573775811280930445_);stroke:#FFFFFF;stroke-width:4;stroke-miterlimit:10;}
	.st10{fill:url(#SVGID_00000059990247577043146390000004451451667516617095_);stroke:#FFFFFF;stroke-width:4;stroke-miterlimit:10;}
</style>
<linearGradient id="SVGID_1_" gradientUnits="userSpaceOnUse" x1="455.6737" y1="-51.6462" x2="455.6737" y2="230.564">
	<stop  offset="0.187" style="stop-color:#70C8F2"/>
	<stop  offset="0.3604" style="stop-color:#62B9E9"/>
	<stop  offset="0.6807" style="stop-color:#4EA3DB"/>
	<stop  offset="0.8573" style="stop-color:#479AD5"/>
</linearGradient>
<path class="st0" d="M911.34,256.28c0.28,8.78-7.53,16.02-17.25,16.02H17.25C7.72,272.3,0,265.33,0,256.72V15.58
	C0,6.97,7.72,0,17.25,0h792.32c18.72,0,34.01,9.16,46.49,24.11c0.55,0.65,1.09,1.32,1.62,1.99c25.51,32.21,38.97,88.97,46.07,139.88
	C908.92,203.14,910.72,237.18,911.34,256.28z"/>
<linearGradient id="SVGID_00000074403993494876899130000014404834912336100740_" gradientUnits="userSpaceOnUse" x1="452.099" y1="144.5182" x2="452.099" y2="158.9214">
	<stop  offset="0.0578" style="stop-color:#F4E72D"/>
	<stop  offset="0.8646" style="stop-color:#F6D342"/>
</linearGradient>
<path style="fill:url(#SVGID_00000074403993494876899130000014404834912336100740_);" d="M0,144.93c0,0,857.75,0,870.35,0
	c14.8,0,32.99,18.28,32.99,18.28l0.86,6.11c0,0-21.59-11.96-33.1-11.96c-11.52,0-871.1,0-871.1,0V144.93z"/>
<linearGradient id="SVGID_00000183963449267028031200000007679771591333909690_" gradientUnits="userSpaceOnUse" x1="455.6737" y1="156.2437" x2="455.6737" y2="275.9602">
	<stop  offset="0.0721" style="stop-color:#9D9D9C"/>
	<stop  offset="1" style="stop-color:#706F6F"/>
</linearGradient>
<path style="fill:url(#SVGID_00000183963449267028031200000007679771591333909690_);" d="M911.34,256.28
	c0.28,8.78-7.53,16.02-17.25,16.02H17.25C7.72,272.3,0,265.33,0,256.72v-99.59h874.74c10.91,0,20.97,3.3,29.01,8.85
	C908.92,203.14,910.72,237.18,911.34,256.28z"/>
<path class="st3" d="M218.4,32.45v241.54h-86.22V32.45c0-4.05,3.26-7.33,7.29-7.33h71.65C215.14,25.12,218.4,28.4,218.4,32.45z"/>
<linearGradient id="SVGID_00000150068191928445259120000007121548295826454154_" gradientUnits="userSpaceOnUse" x1="342.2463" y1="44.8803" x2="509.5265" y2="128.4284">
	<stop  offset="0.3024" style="stop-color:#9EC9ED"/>
	<stop  offset="1" style="stop-color:#479AD5"/>
</linearGradient>
<path style="fill:url(#SVGID_00000150068191928445259120000007121548295826454154_);stroke:#FFFFFF;stroke-width:4;stroke-miterlimit:10;" d="
	M500.98,135.03H344.47c-10.08,0-18.24-8.17-18.24-18.24V53.37c0-10.08,8.17-18.24,18.24-18.24h156.51
	c10.08,0,18.24,8.17,18.24,18.24v63.42C519.22,126.86,511.06,135.03,500.98,135.03z"/>
<linearGradient id="SVGID_00000027570372421203269580000017400133723230856616_" gradientUnits="userSpaceOnUse" x1="546.8337" y1="73.2312" x2="610.4485" y2="105.0037">
	<stop  offset="0.3024" style="stop-color:#9EC9ED"/>
	<stop  offset="1" style="stop-color:#479AD5"/>
</linearGradient>
<path style="fill:url(#SVGID_00000027570372421203269580000017400133723230856616_);stroke:#FFFFFF;stroke-width:4;stroke-miterlimit:10;" d="
	M584.74,138.47h-14.61c-10.08,0-18.24-8.17-18.24-18.24V56.81c0-10.08,8.17-18.24,18.24-18.24h14.61c10.08,0,18.24,8.17,18.24,18.24
	v63.42C602.99,130.3,594.82,138.47,584.74,138.47z"/>
<linearGradient id="SVGID_00000001627171170361277160000005451390022351736204_" gradientUnits="userSpaceOnUse" x1="633.8217" y1="69.7895" x2="697.4366" y2="101.5619">
	<stop  offset="0.3024" style="stop-color:#9EC9ED"/>
	<stop  offset="1" style="stop-color:#479AD5"/>
</linearGradient>
<path style="fill:url(#SVGID_00000001627171170361277160000005451390022351736204_);stroke:#FFFFFF;stroke-width:4;stroke-miterlimit:10;" d="
	M671.73,135.03h-14.61c-10.08,0-18.24-8.17-18.24-18.24V53.37c0-10.08,8.17-18.24,18.24-18.24h14.61c10.08,0,18.24,8.17,18.24,18.24
	v63.42C689.98,126.86,681.81,135.03,671.73,135.03z"/>
<linearGradient id="SVGID_00000036936384822544929800000015579744837288224149_" gradientUnits="userSpaceOnUse" x1="754.3058" y1="69.7895" x2="817.9207" y2="101.5619">
	<stop  offset="0.3024" style="stop-color:#9EC9ED"/>
	<stop  offset="1" style="stop-color:#479AD5"/>
</linearGradient>
<path style="fill:url(#SVGID_00000036936384822544929800000015579744837288224149_);stroke:#FFFFFF;stroke-width:4;stroke-miterlimit:10;" d="
	M792.22,135.03h-14.61c-10.08,0-18.24-8.17-18.24-18.24V53.37c0-10.08,8.17-18.24,18.24-18.24h14.61c10.08,0,18.24,8.17,18.24,18.24
	v63.42C810.46,126.86,802.29,135.03,792.22,135.03z"/>
<linearGradient id="SVGID_00000007415727224513806180000016807834834027102380_" gradientUnits="userSpaceOnUse" x1="230.4714" y1="73.2312" x2="294.0863" y2="105.0037">
	<stop  offset="0.3024" style="stop-color:#9EC9ED"/>
	<stop  offset="1" style="stop-color:#479AD5"/>
</linearGradient>
<path style="fill:url(#SVGID_00000007415727224513806180000016807834834027102380_);stroke:#FFFFFF;stroke-width:4;stroke-miterlimit:10;" d="
	M268.38,138.47h-14.61c-10.08,0-18.24-8.17-18.24-18.24V56.81c0-10.08,8.17-18.24,18.24-18.24h14.61c10.08,0,18.24,8.17,18.24,18.24
	v63.42C286.63,130.3,278.46,138.47,268.38,138.47z"/>
<linearGradient id="SVGID_00000077283068561541890030000000422388781108843699_" gradientUnits="userSpaceOnUse" x1="144.688" y1="73.2312" x2="208.3029" y2="105.0037">
	<stop  offset="0.3024" style="stop-color:#9EC9ED"/>
	<stop  offset="1" style="stop-color:#479AD5"/>
</linearGradient>
<path style="fill:url(#SVGID_00000077283068561541890030000000422388781108843699_);stroke:#FFFFFF;stroke-width:4;stroke-miterlimit:10;" d="
	M182.6,138.47h-14.61c-10.08,0-18.24-8.17-18.24-18.24V56.81c0-10.08,8.17-18.24,18.24-18.24h14.61c10.08,0,18.24,8.17,18.24,18.24
	v63.42C200.84,130.3,192.67,138.47,182.6,138.47z"/>
<linearGradient id="SVGID_00000077300757278283860020000001349975437324347806_" gradientUnits="userSpaceOnUse" x1="17.114" y1="61.1967" x2="116.4899" y2="110.8299">
	<stop  offset="0.3024" style="stop-color:#9EC9ED"/>
	<stop  offset="1" style="stop-color:#479AD5"/>
</linearGradient>
<path style="fill:url(#SVGID_00000077300757278283860020000001349975437324347806_);stroke:#FFFFFF;stroke-width:4;stroke-miterlimit:10;" d="
	M96.68,135.08H33.17c-10.08,0-18.24-8.17-18.24-18.24V53.32c0-10.08,8.17-18.24,18.24-18.24h63.51c10.08,0,18.24,8.17,18.24,18.24
	v63.51C114.92,126.91,106.76,135.08,96.68,135.08z"/>
<path class="st3" d="M304.19,32.45v241.54h-86.22V32.45c0-4.05,3.26-7.33,7.29-7.33h71.65C300.93,25.12,304.19,28.4,304.19,32.45z"
	/>
<path class="st3" d="M620.41,32.45v241.54h-86.22V32.45c0-4.05,3.26-7.33,7.29-7.33h71.65C617.15,25.12,620.41,28.4,620.41,32.45z"
	/>
<path class="st3" d="M706.19,32.45v241.54h-86.22V32.45c0-4.05,3.26-7.33,7.29-7.33h71.65C702.93,25.12,706.19,28.4,706.19,32.45z"
	/>
<path class="st3" d="M826.89,32.58v241.54h-86.22V32.58c0-4.05,3.26-7.33,7.29-7.33h71.65C823.63,25.25,826.89,28.53,826.89,32.58z"
	/>
<path class="st3" d="M820.11,292.79H-14.84c-3.75,0-6.78-3.04-6.78-6.78V31.9c0-3.75,3.04-6.78,6.78-6.78h834.95
	c3.75,0,6.78,3.04,6.78,6.78v254.11C826.89,289.76,823.86,292.79,820.11,292.79z"/>
</svg>
