<?xml version="1.0" encoding="utf-8"?>
<!-- Generator: Adobe Illustrator 26.0.1, SVG Export Plug-In . SVG Version: 6.00 Build 0)  -->
<svg version="1.1" id="Layer_1" xmlns="http://www.w3.org/2000/svg" xmlns:xlink="http://www.w3.org/1999/xlink" x="0px" y="0px"
	 viewBox="0 0 92.41 48.24" style="enable-background:new 0 0 92.41 48.24;" xml:space="preserve">
<style type="text/css">
	.st0{fill:#C6C6C6;}
	.st1{fill:none;stroke:#B2B2B2;stroke-width:4;stroke-miterlimit:10;}
	.st2{fill:#BCCDEB;}
	.st3{fill:#9D9D9C;}
</style>
<g>
	<path class="st0" d="M14.38,47.33c-1.21,0-4.84-0.01-7.88-1.33c-3.52-1.53-5.38-4.43-5.38-8.36v-13.4
		c0-14.26,17.73-23.09,34.16-23.09h50.57c3.1,0,5.62,2.52,5.62,5.62v34.94c0,3.1-2.52,5.62-5.62,5.62l-70.81,0
		C15.03,47.33,14.38,47.33,14.38,47.33z"/>
	<path d="M85.84,2.16c2.55,0,4.62,2.07,4.62,4.62v34.94c0,2.55-2.07,4.62-4.62,4.62H15.42c-0.26,0-0.61,0.01-1.03,0.01
		c-3.62,0-12.28-0.43-12.28-8.69v-13.4c0-12.93,16.14-22.09,33.16-22.09H85.84 M85.84,0.16H35.27c-16.91,0-35.16,9.21-35.16,24.09
		v13.4c0,3.99,1.86,10.69,14.28,10.69c0.24,0,0.45,0,0.65,0l0.38,0h70.42c3.65,0,6.62-2.97,6.62-6.62V6.77
		C92.46,3.12,89.49,0.16,85.84,0.16L85.84,0.16z"/>
</g>
<line class="st1" x1="29.32" y1="9.79" x2="90.46" y2="9.79"/>
<g>
	<path class="st2" d="M1.61,24.74v-0.5c0-10.68,13.82-22.59,33.66-22.59h0.5v0.5c0,1.33,0.07,2.91,0.15,4.59
		c0.26,5.71,0.55,12.19-1.7,14.16c-2.99,2.61-26.62,3.84-32.1,3.84H1.61z"/>
	<path d="M35.27,2.16c0,5.76,1.32,16.01-1.38,18.37c-2.7,2.36-25.34,3.72-31.78,3.72C2.11,13.84,15.73,2.16,35.27,2.16 M36.27,1.16
		h-1c-20.13,0-34.16,12.17-34.16,23.09v1h1c4.14,0,29.14-1.09,32.43-3.97c2.43-2.12,2.15-8.44,1.87-14.56
		c-0.08-1.67-0.15-3.24-0.15-4.56V1.16L36.27,1.16z"/>
</g>
<polygon class="st3" points="49.04,40.07 40.22,40.07 43.54,18.6 52.35,18.6 "/>
<polygon class="st3" points="61.16,40.07 52.35,40.07 55.66,18.6 64.48,18.6 "/>
<polygon class="st3" points="73.29,40.07 64.48,40.07 67.79,18.6 76.6,18.6 "/>
</svg>
